<svg width="50" height="50" viewBox="0 0 50 50" fill="none" xmlns="http://www.w3.org/2000/svg">
<path d="M25.6144 34H16.9935C16.4446 34 16 33.5551 16 33.0065V16.9935C16 16.4447 16.4447 16 16.9935 16H33.0066C33.5552 16 34 16.4447 34 16.9935V33.0065C34 33.5552 33.5552 34 33.0066 34H28.4197V27.0294H30.7594L31.1098 24.3128H28.4197V22.5785C28.4197 21.792 28.6381 21.256 29.766 21.256L31.2045 21.2554V18.8257C30.9557 18.7926 30.1018 18.7186 29.1083 18.7186C27.0343 18.7186 25.6144 19.9846 25.6144 22.3095V24.3128H23.2687V27.0294H25.6144V34Z" fill="#0154A7"/>
<rect x="1" y="1" width="48" height="48" rx="24" stroke="#0154A7" stroke-width="2"/>
</svg>
