<svg width="50" height="50" viewBox="0 0 50 50" fill="none" xmlns="http://www.w3.org/2000/svg">
<path fill-rule="evenodd" clip-rule="evenodd" d="M25 16C22.5557 16 22.2493 16.0104 21.2893 16.0542C20.3314 16.0979 19.6771 16.25 19.1047 16.4725C18.5128 16.7025 18.0109 17.0102 17.5105 17.5105C17.0102 18.0109 16.7025 18.5128 16.4725 19.1047C16.25 19.6771 16.0979 20.3314 16.0542 21.2893C16.0104 22.2493 16 22.5557 16 25C16 27.4443 16.0104 27.7507 16.0542 28.7107C16.0979 29.6686 16.25 30.3229 16.4725 30.8953C16.7025 31.4872 17.0102 31.9891 17.5105 32.4895C18.0109 32.9898 18.5128 33.2975 19.1047 33.5275C19.6771 33.75 20.3314 33.9021 21.2893 33.9458C22.2493 33.9896 22.5557 34 25 34C27.4443 34 27.7507 33.9896 28.7107 33.9458C29.6686 33.9021 30.3229 33.75 30.8953 33.5275C31.4872 33.2975 31.9891 32.9898 32.4895 32.4895C32.9898 31.9891 33.2975 31.4872 33.5275 30.8953C33.75 30.3229 33.9021 29.6686 33.9458 28.7107C33.9896 27.7507 34 27.4443 34 25C34 22.5557 33.9896 22.2493 33.9458 21.2893C33.9021 20.3314 33.75 19.6771 33.5275 19.1047C33.2975 18.5128 32.9898 18.0109 32.4895 17.5105C31.9891 17.0102 31.4872 16.7025 30.8953 16.4725C30.3229 16.25 29.6686 16.0979 28.7107 16.0542C27.7507 16.0104 27.4443 16 25 16ZM25 17.6216C27.4031 17.6216 27.6878 17.6308 28.6368 17.6741C29.5143 17.7141 29.9908 17.8607 30.3079 17.984C30.728 18.1472 31.0278 18.3423 31.3428 18.6572C31.6577 18.9722 31.8528 19.272 32.016 19.6921C32.1393 20.0092 32.2859 20.4857 32.3259 21.3632C32.3692 22.3122 32.3784 22.5969 32.3784 25C32.3784 27.4031 32.3692 27.6878 32.3259 28.6368C32.2859 29.5143 32.1393 29.9908 32.016 30.3079C31.8528 30.728 31.6577 31.0278 31.3428 31.3428C31.0278 31.6577 30.728 31.8528 30.3079 32.016C29.9908 32.1393 29.5143 32.2859 28.6368 32.3259C27.6879 32.3692 27.4033 32.3784 25 32.3784C22.5967 32.3784 22.3121 32.3692 21.3632 32.3259C20.4857 32.2859 20.0092 32.1393 19.6921 32.016C19.272 31.8528 18.9722 31.6577 18.6572 31.3428C18.3423 31.0278 18.1472 30.728 17.984 30.3079C17.8607 29.9908 17.7141 29.5143 17.6741 28.6368C17.6308 27.6878 17.6216 27.4031 17.6216 25C17.6216 22.5969 17.6308 22.3122 17.6741 21.3632C17.7141 20.4857 17.8607 20.0092 17.984 19.6921C18.1472 19.272 18.3423 18.9722 18.6572 18.6572C18.9722 18.3423 19.272 18.1472 19.6921 17.984C20.0092 17.8607 20.4857 17.7141 21.3632 17.6741C22.3122 17.6308 22.5969 17.6216 25 17.6216ZM20.3784 25C20.3784 22.4475 22.4475 20.3784 25 20.3784C27.5525 20.3784 29.6216 22.4475 29.6216 25C29.6216 27.5525 27.5525 29.6216 25 29.6216C22.4475 29.6216 20.3784 27.5525 20.3784 25ZM25 28C23.3431 28 22 26.6569 22 25C22 23.3431 23.3431 22 25 22C26.6569 22 28 23.3431 28 25C28 26.6569 26.6569 28 25 28ZM29.8042 21.2758C30.4007 21.2758 30.8842 20.7923 30.8842 20.1958C30.8842 19.5993 30.4007 19.1158 29.8042 19.1158C29.2078 19.1158 28.7242 19.5993 28.7242 20.1958C28.7242 20.7923 29.2078 21.2758 29.8042 21.2758Z" fill="#0154A7"/>
<rect x="1" y="1" width="48" height="48" rx="24" stroke="#0154A7" stroke-width="2"/>
</svg>
