<svg width="50" height="50" viewBox="0 0 50 50" fill="none" xmlns="http://www.w3.org/2000/svg">
<path d="M34 19.2757C33.3386 19.5769 32.6265 19.7806 31.8796 19.8716C32.6424 19.4036 33.2277 18.6614 33.5034 17.7774C32.7892 18.2107 32 18.526 31.1569 18.695C30.4849 17.9594 29.5246 17.5 28.4617 17.5C26.4237 17.5 24.7702 19.1956 24.7702 21.2866C24.7702 21.5834 24.8019 21.8716 24.8653 22.149C21.7961 21.9908 19.0755 20.4848 17.253 18.1912C16.935 18.7524 16.7533 19.4036 16.7533 20.097C16.7533 21.4101 17.4052 22.5693 18.3962 23.2486C17.7919 23.2302 17.2213 23.058 16.7227 22.7763V22.8229C16.7227 24.6582 17.9958 26.1891 19.6862 26.5358C19.3767 26.6246 19.0502 26.669 18.7132 26.669C18.4754 26.669 18.243 26.6463 18.018 26.6018C18.4881 28.1056 19.851 29.201 21.4675 29.2302C20.2039 30.2465 18.6107 30.8521 16.8811 30.8521C16.5832 30.8521 16.2884 30.8348 16 30.8001C17.6344 31.8727 19.5763 32.5 21.6609 32.5C28.4543 32.5 32.168 26.7308 32.168 21.7264C32.168 21.5618 32.1648 21.3971 32.1585 21.2356C32.8801 20.7015 33.5066 20.0352 34 19.2757Z" fill="#0154A7"/>
<rect x="1" y="1" width="48" height="48" rx="24" stroke="#0154A7" stroke-width="2"/>
</svg>
