<svg width="50" height="50" viewBox="0 0 50 50" fill="none" xmlns="http://www.w3.org/2000/svg">
<path fill-rule="evenodd" clip-rule="evenodd" d="M33.1045 19.4698C33.6439 20.0306 33.82 21.3042 33.82 21.3042C33.82 21.3042 34 22.8002 34 24.2956V25.698C34 27.194 33.82 28.6894 33.82 28.6894C33.82 28.6894 33.6439 29.963 33.1045 30.5239C32.4878 31.1873 31.8039 31.2559 31.4174 31.2946C31.3749 31.2989 31.336 31.3028 31.3011 31.3071C28.7822 31.4942 25 31.5 25 31.5C25 31.5 20.32 31.4561 18.88 31.314C18.8118 31.3009 18.7291 31.2907 18.6354 31.2792C18.1793 31.223 17.4633 31.1348 16.8949 30.5239C16.3555 29.963 16.18 28.6894 16.18 28.6894C16.18 28.6894 16 27.194 16 25.698V24.2956C16 22.8002 16.18 21.3042 16.18 21.3042C16.18 21.3042 16.3555 20.0306 16.8949 19.4698C17.513 18.8054 18.1975 18.7376 18.5841 18.6993C18.626 18.6951 18.6644 18.6913 18.6989 18.6871C21.2177 18.5 24.9961 18.5 24.9961 18.5H25.0039C25.0039 18.5 28.7822 18.5 31.3011 18.6871C31.3356 18.6913 31.374 18.6951 31.4159 18.6993C31.8022 18.7376 32.487 18.8055 33.1045 19.4698ZM23.1409 22.2041L23.1415 27.3973L28.0043 24.8097L23.1409 22.2041Z" fill="#0154A7"/>
<rect x="1" y="1" width="48" height="48" rx="24" stroke="#0154A7" stroke-width="2"/>
</svg>
