<svg width="58" height="58" viewBox="0 0 58 58" fill="none" xmlns="http://www.w3.org/2000/svg">
<g id="airplane">
<path id="Icon" d="M37.4587 20.5416L46.4677 27.5487C47.645 28.4644 48.3337 29.8897 48.3337 31.3812C48.3337 34.0506 46.1697 36.25 43.5003 36.25H33.8337M20.542 20.5416L11.5329 27.5487C10.3556 28.4644 9.66699 29.8897 9.66699 31.3812C9.66699 34.0506 11.8309 36.25 14.5003 36.25H24.167M19.3337 45.9166H26.5837M31.417 45.9166H38.667M21.4903 19.9106L27.8179 49.9668C28.0872 51.246 29.9134 51.246 30.1827 49.9668L36.5104 19.9106C37.7809 13.8755 34.8199 7.74306 29.3036 4.98493C29.1127 4.88946 28.888 4.88946 28.697 4.98493C23.1808 7.74306 20.2198 13.8756 21.4903 19.9106Z" stroke="#0154A7" stroke-width="3" stroke-linecap="round"/>
</g>
</svg>
