<svg width="44" height="44" viewBox="0 0 44 44" fill="none" xmlns="http://www.w3.org/2000/svg">
<rect width="44" height="44" rx="22" fill="#C7C7C7"/>
<g clip-path="url(#clip0_77_252)">
<path d="M19.3153 16.7325C19.4207 16.6469 19.554 16.6033 19.6895 16.6099C19.8251 16.6166 19.9535 16.6731 20.05 16.7685C20.1465 16.864 20.2043 16.9918 20.2125 17.1273C20.2206 17.2628 20.1783 17.3965 20.0939 17.5028L16.1458 21.4509H29.1718C29.317 21.4509 29.4563 21.5082 29.5594 21.6103C29.6626 21.7125 29.7213 21.8512 29.7227 21.9963C29.7227 22.1424 29.6647 22.2826 29.5614 22.3859C29.4581 22.4892 29.3179 22.5472 29.1718 22.5472H16.1467L20.0948 26.4871C20.196 26.5914 20.2526 26.731 20.2526 26.8764C20.2526 27.0217 20.196 27.1614 20.0948 27.2657C20.044 27.3174 19.9835 27.3585 19.9166 27.3866C19.8498 27.4147 19.778 27.4291 19.7055 27.4291C19.633 27.4291 19.5613 27.4147 19.4944 27.3866C19.4276 27.3585 19.367 27.3174 19.3162 27.2657L14.4334 22.3847C14.3327 22.2818 14.2764 22.1435 14.2764 21.9995C14.2764 21.8556 14.3327 21.7173 14.4334 21.6144L19.3153 16.7325Z" fill="white" stroke="white" stroke-width="0.550901"/>
</g>
<defs>
<clipPath id="clip0_77_252">
<rect width="16" height="11.5083" fill="white" transform="translate(14 16.2458)"/>
</clipPath>
</defs>
</svg>
