<svg width="44" height="44" viewBox="0 0 44 44" fill="none" xmlns="http://www.w3.org/2000/svg">
<rect x="44" y="44" width="44" height="44" rx="22" transform="rotate(180 44 44)" fill="#0154A7"/>
<g clip-path="url(#clip0_77_256)">
<path d="M24.6847 27.2675C24.5793 27.3531 24.446 27.3967 24.3105 27.3901C24.1749 27.3834 24.0465 27.3269 23.95 27.2315C23.8535 27.136 23.7957 27.0082 23.7875 26.8727C23.7794 26.7372 23.8217 26.6035 23.9061 26.4972L27.8542 22.5491H14.8282C14.683 22.5491 14.5437 22.4918 14.4406 22.3897C14.3374 22.2875 14.2787 22.1488 14.2773 22.0037C14.2773 21.8576 14.3353 21.7174 14.4386 21.6141C14.5419 21.5108 14.6821 21.4528 14.8282 21.4528H27.8533L23.9052 17.5129C23.804 17.4086 23.7474 17.269 23.7474 17.1236C23.7474 16.9783 23.804 16.8386 23.9052 16.7343C23.956 16.6826 24.0165 16.6415 24.0834 16.6134C24.1502 16.5853 24.222 16.5709 24.2945 16.5709C24.367 16.5709 24.4387 16.5853 24.5056 16.6134C24.5724 16.6415 24.633 16.6826 24.6838 16.7343L29.5666 21.6153C29.6673 21.7182 29.7236 21.8565 29.7236 22.0005C29.7236 22.1444 29.6673 22.2827 29.5666 22.3856L24.6847 27.2675Z" fill="white" stroke="white" stroke-width="0.550901"/>
</g>
<defs>
<clipPath id="clip0_77_256">
<rect width="16" height="11.5083" fill="white" transform="matrix(-1 0 0 -1 30 27.7542)"/>
</clipPath>
</defs>
</svg>
