<svg width="136" height="136" viewBox="0 0 136 136" fill="none" xmlns="http://www.w3.org/2000/svg">
<g filter="url(#filter0_d_278_38)">
<circle cx="68" cy="68" r="50" fill="#0154A7"/>
</g>
<path d="M83.7668 79.1978C86.2703 76.9666 87.6879 73.9925 87.6879 70.9063C87.6879 67.6263 86.1524 64.5589 83.3643 62.2684C80.6507 60.0399 77.0589 58.8125 73.25 58.8125C69.4411 58.8125 65.8493 60.0399 63.1361 62.2686C60.348 64.5589 58.8125 67.6263 58.8125 70.9063C58.8125 74.1862 60.348 77.2537 63.1361 79.5442C65.8493 81.7728 69.4411 83.0002 73.25 83.0002C73.7575 83.0002 74.2682 82.9778 74.7746 82.9332L75.6397 83.6831C78.62 86.2656 82.4314 87.6874 86.375 87.6875H87.6875V84.8938L87.3031 84.5094C85.7867 82.9885 84.585 81.1836 83.7668 79.1978ZM77.3589 81.6992L75.623 80.1947L75.0442 80.2656C74.4489 80.3384 73.8497 80.375 73.25 80.375C66.7367 80.375 61.4375 76.1273 61.4375 70.9063C61.4375 65.6852 66.7367 61.4375 73.25 61.4375C79.7633 61.4375 85.0625 65.6852 85.0625 70.9063C85.0625 73.5075 83.7648 75.9359 81.4083 77.7442L80.6524 78.3243L81.0012 79.3115C81.716 81.3278 82.7667 83.2087 84.1087 84.8746C81.6094 84.4575 79.2737 83.3587 77.3589 81.6992Z" fill="white"/>
<path d="M51.9371 73.043C53.1657 71.4877 54.1303 69.7412 54.7924 67.8731L55.1386 66.8908L54.3833 66.3111C52.1612 64.606 50.9375 62.3175 50.9375 59.8672C50.9375 54.9433 55.9421 50.9375 62.0938 50.9375C66.6192 50.9375 70.5239 53.1056 72.2719 56.2121C72.5965 56.1964 72.9225 56.1875 73.25 56.1875C73.9077 56.1875 74.5594 56.2194 75.2051 56.2832C74.5296 54.5331 73.3564 52.9355 71.7434 51.6106C69.1543 49.4838 65.7277 48.3125 62.0938 48.3125C58.4598 48.3125 55.0332 49.4838 52.4439 51.6106C49.7797 53.7992 48.3125 56.7314 48.3125 59.8672C48.3125 62.8039 49.6539 65.6336 52.0244 67.7621C51.2508 69.6238 50.1204 71.3161 48.697 72.7438L48.3125 73.1282V75.875H49.625C52.0521 75.8747 54.4458 75.3095 56.6166 74.2241C56.3786 73.3219 56.2391 72.3965 56.2006 71.4642C54.883 72.2364 53.4398 72.7708 51.9371 73.043Z" fill="white"/>
<defs>
<filter id="filter0_d_278_38" x="0" y="0" width="136" height="136" filterUnits="userSpaceOnUse" color-interpolation-filters="sRGB">
<feFlood flood-opacity="0" result="BackgroundImageFix"/>
<feColorMatrix in="SourceAlpha" type="matrix" values="0 0 0 0 0 0 0 0 0 0 0 0 0 0 0 0 0 0 127 0" result="hardAlpha"/>
<feOffset/>
<feGaussianBlur stdDeviation="9"/>
<feComposite in2="hardAlpha" operator="out"/>
<feColorMatrix type="matrix" values="0 0 0 0 0 0 0 0 0 0 0 0 0 0 0 0 0 0 0.15 0"/>
<feBlend mode="normal" in2="BackgroundImageFix" result="effect1_dropShadow_278_38"/>
<feBlend mode="normal" in="SourceGraphic" in2="effect1_dropShadow_278_38" result="shape"/>
</filter>
</defs>
</svg>
