<svg width="24" height="24" viewBox="0 0 24 24" fill="none" xmlns="http://www.w3.org/2000/svg">
<g id="headphones/alt">
<path id="Icon" d="M5.44202 16.6852L5.05221 17.6061H5.05221L5.44202 16.6852ZM5.44202 9.31476L5.83182 10.2357L5.44202 9.31476ZM6.18979 9.18265L6 10.1645H6L6.18979 9.18265ZM6.83018 9.60698L7.66036 9.04948L6.83018 9.60698ZM6.18979 16.8174L6 15.8355H6L6.18979 16.8174ZM6.83018 16.393L6 15.8355L6 15.8355L6.83018 16.393ZM18.558 16.6852L18.9478 17.6061L18.558 16.6852ZM18.558 9.31476L18.1682 10.2357L18.558 9.31476ZM17.8102 9.18265L18 10.1645L17.8102 9.18265ZM17.1698 9.60698L16.3396 9.04948L17.1698 9.60698ZM17.8102 16.8174L18 15.8355H18L17.8102 16.8174ZM17.1698 16.393L18 15.8355L18 15.8355L17.1698 16.393ZM20 17C20 16.4477 19.5523 16 19 16C18.4477 16 18 16.4477 18 17H20ZM12 19C11.4477 19 11 19.4477 11 20C11 20.5523 11.4477 21 12 21V19ZM5.83182 15.7643C4.75348 15.3079 4 14.2408 4 13H2C2 15.0722 3.2603 16.8476 5.05221 17.6061L5.83182 15.7643ZM4 13C4 11.7592 4.75348 10.6921 5.83182 10.2357L5.05221 8.39387C3.2603 9.15236 2 10.9278 2 13H4ZM8 15.4V10.6H6V15.4H8ZM5.83182 10.2357C5.91164 10.2019 5.957 10.1829 5.99483 10.1686C6.02901 10.1558 6.03609 10.155 6.02872 10.1566C6.01754 10.1591 6.00106 10.1611 5.98528 10.1611C5.97194 10.161 5.97407 10.1595 6 10.1645L6.37957 8.20082C6.11812 8.15028 5.86737 8.1449 5.60313 8.20245C5.38124 8.25077 5.17674 8.34115 5.05221 8.39387L5.83182 10.2357ZM8 10.6C8 10.1876 8.03193 9.60281 7.66036 9.04948L6 10.1645C6.00008 10.1646 5.99806 10.1616 5.99514 10.1558C5.99218 10.15 5.98949 10.1438 5.98736 10.1379C5.98287 10.1254 5.98476 10.1251 5.98802 10.149C5.99172 10.176 5.99556 10.2209 5.99772 10.2997C5.99992 10.3797 6 10.4728 6 10.6H8ZM6 10.1645C5.98504 10.1616 5.9732 10.1586 5.96473 10.1563C5.9562 10.154 5.94996 10.1519 5.94612 10.1506C5.93885 10.1481 5.93736 10.1472 5.94154 10.1491C5.94547 10.1509 5.95233 10.1543 5.96159 10.1595C5.97075 10.1647 5.98084 10.1708 5.99123 10.1777C6.00162 10.1846 6.01121 10.1915 6.01954 10.1979C6.02795 10.2044 6.03375 10.2094 6.03695 10.2123C6.04037 10.2154 6.03891 10.2144 6.03377 10.2087C6.03105 10.2057 6.02676 10.2007 6.02127 10.1938C6.01583 10.1869 6.0085 10.1771 6 10.1645L7.66036 9.04948C7.49802 8.80774 7.26925 8.62532 7.09594 8.51049C6.92264 8.39566 6.66548 8.25609 6.37957 8.20082L6 10.1645ZM5.05221 17.6061C5.17674 17.6588 5.38124 17.7492 5.60313 17.7976C5.86737 17.8551 6.11812 17.8497 6.37958 17.7992L6 15.8355C5.97407 15.8405 5.97194 15.839 5.98528 15.8389C6.00106 15.8389 6.01753 15.8409 6.02872 15.8434C6.03609 15.845 6.02901 15.8442 5.99483 15.8314C5.957 15.8171 5.91164 15.7981 5.83182 15.7643L5.05221 17.6061ZM6 15.4C6 15.5272 5.99992 15.6203 5.99772 15.7003C5.99556 15.7791 5.99172 15.824 5.98802 15.851C5.98476 15.8749 5.98287 15.8746 5.98736 15.8621C5.98949 15.8562 5.99218 15.85 5.99514 15.8442C5.99806 15.8384 6.00008 15.8354 6 15.8355L7.66036 16.9505C8.03194 16.3972 8 15.8124 8 15.4H6ZM6.37957 17.7992C6.66548 17.7439 6.92264 17.6043 7.09594 17.4895C7.26925 17.3747 7.49802 17.1923 7.66036 16.9505L6 15.8355C6.0085 15.8229 6.01583 15.8131 6.02127 15.8062C6.02676 15.7993 6.03105 15.7943 6.03377 15.7913C6.03891 15.7856 6.04037 15.7846 6.03695 15.7877C6.03375 15.7906 6.02795 15.7956 6.01954 15.8021C6.01121 15.8085 6.00162 15.8154 5.99123 15.8223C5.98084 15.8292 5.97075 15.8353 5.96159 15.8405C5.95233 15.8457 5.94547 15.8491 5.94154 15.8509C5.93736 15.8528 5.93885 15.8519 5.94612 15.8494C5.94996 15.8481 5.9562 15.846 5.96473 15.8437C5.9732 15.8414 5.98504 15.8384 6 15.8355L6.37957 17.7992ZM18.9478 17.6061C20.7397 16.8476 22 15.0722 22 13H20C20 14.2408 19.2465 15.3079 18.1682 15.7643L18.9478 17.6061ZM22 13C22 10.9278 20.7397 9.15236 18.9478 8.39387L18.1682 10.2357C19.2465 10.6921 20 11.7592 20 13H22ZM18 15.4V10.6H16V15.4H18ZM18.9478 8.39387C18.8233 8.34115 18.6188 8.25077 18.3969 8.20245C18.1326 8.1449 17.8819 8.15028 17.6204 8.20082L18 10.1645C18.0259 10.1595 18.0281 10.161 18.0147 10.1611C17.9989 10.1611 17.9825 10.1591 17.9713 10.1566C17.9639 10.155 17.971 10.1558 18.0052 10.1686C18.043 10.1829 18.0884 10.2019 18.1682 10.2357L18.9478 8.39387ZM18 10.6C18 10.4728 18.0001 10.3797 18.0023 10.2997C18.0044 10.2209 18.0083 10.176 18.012 10.149C18.0152 10.1251 18.0171 10.1254 18.0126 10.1379C18.0105 10.1438 18.0078 10.15 18.0049 10.1558C18.0019 10.1616 17.9999 10.1646 18 10.1645L16.3396 9.04948C15.9681 9.60281 16 10.1876 16 10.6H18ZM17.6204 8.20082C17.3345 8.25609 17.0774 8.39566 16.9041 8.51049C16.7308 8.62532 16.502 8.80774 16.3396 9.04948L18 10.1645C17.9915 10.1771 17.9842 10.1869 17.9787 10.1938C17.9732 10.2007 17.9689 10.2057 17.9662 10.2087C17.9611 10.2144 17.9596 10.2154 17.963 10.2123C17.9662 10.2094 17.972 10.2044 17.9805 10.1979C17.9888 10.1915 17.9984 10.1846 18.0088 10.1777C18.0192 10.1708 18.0292 10.1647 18.0384 10.1595C18.0477 10.1543 18.0545 10.1509 18.0585 10.1491C18.0626 10.1472 18.0612 10.1481 18.0539 10.1506C18.05 10.1519 18.0438 10.154 18.0353 10.1563C18.0268 10.1586 18.015 10.1616 18 10.1645L17.6204 8.20082ZM18.1682 15.7643C18.0884 15.7981 18.043 15.8171 18.0052 15.8314C17.971 15.8442 17.9639 15.845 17.9713 15.8434C17.9825 15.8409 17.9989 15.8389 18.0147 15.8389C18.0281 15.839 18.0259 15.8405 18 15.8355L17.6204 17.7992C17.8819 17.8497 18.1326 17.8551 18.3969 17.7976C18.6188 17.7492 18.8233 17.6588 18.9478 17.6061L18.1682 15.7643ZM16 15.4C16 15.8124 15.9681 16.3972 16.3396 16.9505L18 15.8355C17.9999 15.8354 18.0019 15.8384 18.0049 15.8442C18.0078 15.85 18.0105 15.8562 18.0126 15.8621C18.0171 15.8746 18.0152 15.8749 18.012 15.851C18.0083 15.824 18.0044 15.7791 18.0023 15.7003C18.0001 15.6203 18 15.5272 18 15.4H16ZM18 15.8355C18.015 15.8384 18.0268 15.8414 18.0353 15.8437C18.0438 15.846 18.05 15.8481 18.0539 15.8494C18.0612 15.8519 18.0626 15.8528 18.0585 15.8509C18.0545 15.8491 18.0477 15.8457 18.0384 15.8405C18.0292 15.8353 18.0192 15.8292 18.0088 15.8223C17.9984 15.8154 17.9888 15.8085 17.9805 15.8021C17.972 15.7956 17.9662 15.7906 17.963 15.7877C17.9596 15.7846 17.9611 15.7856 17.9662 15.7913C17.9689 15.7943 17.9732 15.7993 17.9787 15.8062C17.9842 15.8131 17.9915 15.8229 18 15.8355L16.3396 16.9505C16.502 17.1923 16.7308 17.3747 16.9041 17.4895C17.0774 17.6043 17.3345 17.7439 17.6204 17.7992L18 15.8355ZM6 10C6 6.68629 8.68629 4 12 4V2C7.58172 2 4 5.58172 4 10H6ZM12 4C15.3137 4 18 6.68629 18 10H20C20 5.58172 16.4183 2 12 2V4ZM18 17V18H20V17H18ZM17 19H12V21H17V19ZM18 18C18 18.5523 17.5523 19 17 19V21C18.6569 21 20 19.6569 20 18H18Z" fill="#0154A7"/>
</g>
</svg>
